<svg xmlns="http://www.w3.org/2000/svg" width="218" height="218.672" viewBox="0 0 218 218.672">
  <g id="noun_arcade_3630497" transform="translate(53.481 -3)">
    <g id="Group_1" data-name="Group 1" transform="translate(-53.983 3)">
      <path id="Path_583" data-name="Path 583" d="M41,28.9v23h7.54v-23a18.855,18.855,0,0,1-7.54,0Z" transform="translate(102.098 68.746)" fill="#0d0125"/>
      <path id="Path_584" data-name="Path 584" d="M21,28.9v23h7.54v-23a18.855,18.855,0,0,1-7.54,0Z" transform="translate(46.694 68.746)" fill="#0d0125"/>
      <ellipse id="Ellipse_1" data-name="Ellipse 1" cx="11" cy="11.5" rx="11" ry="11.5" transform="translate(136.502 68)" fill="#0d0125"/>
      <ellipse id="Ellipse_2" data-name="Ellipse 2" cx="11" cy="11.5" rx="11" ry="11.5" transform="translate(60.502 68)" fill="#0d0125"/>
      <path id="Path_585" data-name="Path 585" d="M110.485,6.77A3.776,3.776,0,0,0,106.715,3H23.77A3.776,3.776,0,0,0,20,6.77V18.081h90.485Z" transform="translate(43.923 -3)" fill="#0d0125"/>
      <rect id="Rectangle_1" data-name="Rectangle 1" width="218" height="14" transform="translate(0.502 129)" fill="#0d0125"/>
      <path id="Path_586" data-name="Path 586" d="M9,99.783h98.026V47H9ZM91.945,54.54h7.54v7.54h-7.54Zm-15.081,0H84.4v7.54h-7.54Zm-15.081,0h7.54v7.54h-7.54Zm-15.081,0h7.54v7.54H46.7Zm-15.081,0h7.54v7.54h-7.54Zm-15.081,0h7.54v7.54H16.54Z" transform="translate(13.451 118.889)" fill="#0d0125"/>
      <rect id="Rectangle_2" data-name="Rectangle 2" width="53" height="14" transform="translate(158.502 166)" fill="#0d0125"/>
      <path id="Path_587" data-name="Path 587" d="M5,110.864h7.54V50.54H125.647v60.323h82.945V80.7H148.268V50.54h60.323V43H5Z" transform="translate(2.37 107.809)" fill="#0d0125"/>
      <path id="Path_588" data-name="Path 588" d="M52.243,95.715H22.081a3.772,3.772,0,0,1-3.77-3.77V24.081a3.772,3.772,0,0,1,3.77-3.77H180.43a3.772,3.772,0,0,1,3.77,3.77V91.945a3.772,3.772,0,0,1-3.77,3.77H150.268v11.311h45.243V20.311A11.324,11.324,0,0,0,184.2,9H18.311A11.324,11.324,0,0,0,7,20.311v86.715H52.243Z" transform="translate(7.911 13.621)" fill="#0d0125"/>
      <rect id="Rectangle_3" data-name="Rectangle 3" width="54" height="11" transform="translate(82.502 109)" fill="#0d0125"/>
    </g>
  </g>
</svg>
