<svg xmlns="http://www.w3.org/2000/svg" width="63.52" height="61.515" viewBox="0 0 63.52 61.515">
  <path id="Path_24" data-name="Path 24" d="M158.26,211.982,138.327,223.76v-2.44a7.943,7.943,0,0,0,5.687-9.631,7.828,7.828,0,0,0-9.508-5.76,7.96,7.96,0,0,0,0,15.391v4.7L116.6,236.6l.005,17.706L138.5,267.2l41.622-24.689V224.95Zm-21.844,26.968a1.923,1.923,0,0,0,1.911-1.935v-.656c1.651.385,2.506,1.187,2.506,1.519,0,.446-1.531,1.732-4.453,1.732s-4.454-1.287-4.454-1.732c0-.337.883-1.157,2.581-1.534v.672A1.923,1.923,0,0,0,136.416,238.951Zm35.688.436-6.432,3.793a1.9,1.9,0,0,1-2.6-.731,1.948,1.948,0,0,1,.722-2.636l6.432-3.793a1.9,1.9,0,0,1,2.6.731A1.949,1.949,0,0,1,172.1,239.387Zm-33.644,8.067-16.177-9.735,12.222-7.221v1.912c-3.755.545-6.4,2.714-6.4,5.468,0,3.193,3.557,5.6,8.274,5.6s8.275-2.408,8.275-5.6c0-2.736-2.612-4.895-6.327-5.457V228.24l19.927-11.773,3.705,2.2c-3.924.078-6.857,2.164-6.857,4.913a3.781,3.781,0,0,0,.136,1,10.212,10.212,0,0,0-3.02-.437c-4.039,0-7.085,2.113-7.085,4.916s3.046,4.916,7.085,4.916,7.085-2.114,7.085-4.916a3.776,3.776,0,0,0-.136-1,10.212,10.212,0,0,0,3.02.437c4.039,0,7.085-2.114,7.085-4.916a3.767,3.767,0,0,0-.048-.592l5.211,3.1Z" transform="translate(-116.601 -205.687)" fill="#f23839"/>
</svg>
