<svg id="logo" xmlns="http://www.w3.org/2000/svg" width="289.78" height="68.786" viewBox="0 0 289.78 68.786">
  <path id="Path_285" data-name="Path 285" d="M476.315,318.386l-7.488-12.945V264.864h-4.4L476.362,249.6v68.786ZM493.7,249.6l-11.93,15.264h4.4v53.473l7.535-12.9Zm-31.784,41.687-1.98,4.444a.361.361,0,0,1-.337.241H444.046l1.836-1.835V270.661l-1.836-1.836h9.033l-1.835,1.836v22.268h6.714Zm-18.4,4.685h-8.357l1.4-1.5-1.545-5.265h-6.232l-1.594,5.313,1.449,1.449H420.28l2.271-2.222,6.714-23.138-1.594-1.835h8.7l-1.739,1.835,6.618,23.09,2.271,2.269Zm-9.227-9.757-2.415-8.405-2.415,8.357Zm-16.81-14.394h5.361l2.174,1.594L423.9,269.26a.471.471,0,0,0-.483-.387h-17.39a.52.52,0,0,0-.483.387l-1.111,4.154,2.173-1.594h5.362v22.317l-1.836,1.835h9.178l-1.835-1.835Zm-12.174,21.93,2.271,2.222H401.1c-.918-1.4-6.135-11.158-6.135-11.158H392.8v9.323l1.836,1.835h-9.082l1.836-1.835V270.661l-1.836-1.836h14.443c2.174,0,2.754,1.208,2.754,2.174v11.158a2.644,2.644,0,0,1-2.656,2.464C400.09,284.766,405.306,293.75,405.306,293.75Zm-7.874-21.012a.971.971,0,0,0-1.013-.917H392.7v9.9h3.816c.725,0,.821-.386.821-.724ZM384.1,270.951v22.944c0,1.111-.628,2.03-2.946,2.03H369.416c-1.5,0-2.8-.725-2.8-2.03V270.951c0-1.111.483-2.173,2.947-2.173h11.69C382.893,268.777,384.1,269.5,384.1,270.951Zm-5.361,21.978V273.51c0-1.159-.483-1.69-1.111-1.69H372.17v19.514c0,1.015.531,1.594,1.111,1.594Zm-13.768,3h0l-1.835-1.836V270.612h0l1.835-1.835h-7.148a.221.221,0,0,0-.242.192c-.434,1.885-5.168,16.183-5.168,16.183s-4.879-14.347-5.362-16.23a.321.321,0,0,0-.242-.193H339.95l1.836,1.836h0v23.524l-1.836,1.836h9.082l-1.836-1.836V281.433l5.169,14.492,5.12-14.492v12.656l-1.836,1.836Zm256.5-24.1h5.362l2.173,1.594-1.111-4.154a.469.469,0,0,0-.483-.387H610.022a.519.519,0,0,0-.483.387l-1.111,4.154,2.173-1.594h5.362v22.317l-1.836,1.835h9.226l-1.836-1.835Zm-9.13,24.1h-8.357l1.4-1.5-1.545-5.265h-6.231l-1.594,5.314,1.449,1.449h-8.405l2.271-2.222,6.714-23.09-1.594-1.835h8.695l-1.738,1.835,6.618,23.09,2.318,2.222Zm-9.226-9.71-2.415-8.357-2.415,8.357Zm-16.183-5.507c.387,0,1.546.58,1.546,1.546v11.206a2.393,2.393,0,0,1-2.367,2.464h-15.8l1.835-1.836V270.612h0l-1.835-1.835h15.65a2.624,2.624,0,0,1,2.512,2.125v7.922a2.013,2.013,0,0,1-1.546,1.883Zm-4.975-8.936h-4.4v8.212h4.25a.93.93,0,0,0,1.015-.87v-6.327c.049-.725-.242-.966-.87-1.015Zm1.015,12.172a1.031,1.031,0,0,0-1.063-1.014h-4.347v9.951h4.492a.918.918,0,0,0,.918-.919Zm-14.3,12.028h0l-1.836-1.835V270.661h0l1.836-1.836h-7.15a.327.327,0,0,0-.29.193c-.435,1.884-5.169,16.182-5.169,16.182s-4.927-14.346-5.361-16.23a.321.321,0,0,0-.242-.192H543.6l1.835,1.835h0v23.476l-1.835,1.836h9.081l-1.835-1.836V281.337l5.216,14.635,5.073-14.635v12.752l-1.836,1.836h9.323Zm-26.906-25.021v22.944c0,1.111-.628,2.03-2.946,2.03h-11.69c-1.5,0-2.8-.725-2.8-2.03V270.951c0-1.111.483-2.173,2.946-2.173h11.69C540.56,268.777,541.767,269.5,541.767,270.951Zm-5.361,21.978V273.51c0-1.159-.483-1.69-1.111-1.69h-5.458v19.514c0,1.015.531,1.594,1.111,1.594Zm-17.1-21.978,3.333-2.173h-9.564l1.207,1.835-6.472,9.806v-9.806l1.835-1.835H500.66l1.836,1.835v23.476l-1.836,1.836h8.984l-1.835-1.836v-5.652l2.029-3.091s5.313,8.936,6.28,10.579h6.811l-2.512-2.222-7.632-12.849Zm105.837,22.606h.772v2.415h.289v-2.415h.773v-.241h-1.835Zm3.526,1.642-.919-1.932h-.289v2.754h.289v-2.077l.725,1.642h.241l.725-1.642v2.028h.29v-2.656h-.29Z" transform="translate(-339.95 -249.6)" fill="#fda90f"/>
</svg>
