<svg xmlns="http://www.w3.org/2000/svg" xmlns:xlink="http://www.w3.org/1999/xlink" version="1.1" x="0px" y="0px" viewBox="0 0 64 80" style="enable-background:new 0 0 64 64;" xml:space="preserve"><g><path d="M41,28.899V35h2v-6.101C42.677,28.965,42.342,29,42,29S41.323,28.965,41,28.899z"/><path d="M21,28.899V35h2v-6.101C22.677,28.965,22.342,29,22,29S21.323,28.965,21,28.899z"/><circle cx="42" cy="24" r="3"/><circle cx="22" cy="24" r="3"/><path d="M44,4c0-0.551-0.449-1-1-1H21c-0.551,0-1,0.449-1,1v3h24V4z"/><rect x="3" y="37" width="58" height="4"/><path d="M9,61h26V47H9V61z M31,49h2v2h-2V49z M27,49h2v2h-2V49z M23,49h2v2h-2V49z M19,49h2v2h-2V49z M15,49h2v2h-2V49z M11,49h2v2   h-2V49z"/><rect x="45" y="47" width="14" height="4"/><polygon points="5,61 7,61 7,45 37,45 37,61 59,61 59,53 43,53 43,45 59,45 59,43 5,43  "/><path d="M19,32h-8c-0.552,0-1-0.448-1-1V13c0-0.552,0.448-1,1-1h42c0.552,0,1,0.448,1,1v18c0,0.552-0.448,1-1,1h-8v3h12V12   c0-1.654-1.346-3-3-3H10c-1.654,0-3,1.346-3,3v23h12V32z"/><rect x="25" y="32" width="14" height="3"/></g><text x="0" y="79" fill="#000000" font-size="5px" font-weight="bold" font-family="'Helvetica Neue', Helvetica, Arial-Unicode, Arial, Sans-serif">Created by Eucalyp</text><text x="0" y="84" fill="#000000" font-size="5px" font-weight="bold" font-family="'Helvetica Neue', Helvetica, Arial-Unicode, Arial, Sans-serif">from the Noun Project</text></svg>